PathFileType	4	(X/Y/Z)	D:\TRACE\v60_Jaco2_6-2-23\BothDRS_Motion3_1-platform.trc
DataRate	CameraRate	NumFrames	NumMarkers	Units	OrigDataRate	OrigDataStartFrame	OrigNumFrames
100.00	100.00	      73	5	mm	100.00	3501	      7000
Frame#	Time	Left_Front			Right_Front			Left_Aft			Right_Aft			Post			
		X1	Y1	Z1	X2	Y2	Z2	X3	Y3	Z3	X4	Y4	Z4	X5	Y5	Z5	

3501	35.000	-751.10309	23.14284	-646.92871	819.68640	21.58631	-624.33679	-681.66852	2.05101	489.23953	732.22424	-2.10141	592.14661	44.54501	1326.71753	-934.01819	
3502	35.010	-751.05524	22.84949	-646.94189	819.71759	21.54737	-624.38733	-681.64520	2.16101	489.18851	732.29944	-2.16458	591.99500	44.54256	1326.57068	-934.54108	
3503	35.020	-751.05432	22.78856	-647.01056	819.70276	21.29395	-624.37769	-681.71173	2.29260	489.17059	732.34290	-1.26826	592.50714	44.33016	1326.40552	-934.77997	
3504	35.030	-751.13446	22.65172	-647.10321	819.72217	21.11463	-624.43988	-681.72589	2.58524	489.12210	732.48792	-1.14523	592.37476	44.10086	1326.12378	-935.47351	
3505	35.040	-751.16217	22.47678	-647.14850	819.75177	21.00077	-624.52985	-681.73712	2.89162	489.15652	732.56000	-1.52245	591.89417	44.09451	1325.83960	-935.80444	
3506	35.050	-751.15784	22.27393	-647.18188	819.68219	20.78781	-624.65344	-681.77960	3.18709	488.94705	732.62933	-1.30641	591.80536	44.08445	1325.27002	-936.00214	
3507	35.060	-751.21497	22.06081	-647.26337	819.65942	20.34317	-624.68915	-681.83643	3.38857	488.95227	732.64545	-1.23220	591.76666	43.95692	1324.80603	-936.14185	
3508	35.070	-751.22968	21.75686	-647.32513	819.66644	20.00276	-624.75183	-681.90814	3.47768	488.93295	732.63403	-0.94206	591.79150	44.17448	1324.52209	-936.59387	
3509	35.080	-751.17981	21.50348	-647.43622	819.67334	19.87804	-624.74976	-681.90247	3.61782	488.86920	732.48138	-0.78844	591.71606	44.29501	1324.24023	-936.83002	
3510	35.090	-751.37909	21.44681	-647.15729	819.68988	19.69541	-624.85553	-681.81946	3.79648	488.73492	732.48718	-0.67509	591.61609	44.44460	1323.60315	-937.56299	
3511	35.100	-751.21680	21.03303	-647.48950	819.75763	19.47131	-624.93884	-681.79980	3.99837	488.59982	732.32220	0.27742	591.96393	44.45617	1323.24915	-938.41028	
3512	35.110	-751.19501	20.49797	-647.57648	819.74084	19.02507	-625.06451	-681.78589	4.15972	488.52426	731.94324	0.35984	591.97168	44.16861	1323.00232	-939.13269	
3513	35.120	-751.08942	20.21065	-647.72156	819.69623	18.70877	-625.12341	-681.65198	4.13475	488.47675	731.89392	0.52673	591.83600	44.24915	1322.36011	-940.05334	
3514	35.130	-751.03900	19.74571	-647.75574	819.71533	18.39308	-625.10663	-681.37219	3.87343	488.54968	732.12006	0.88857	591.58832	44.35519	1322.04041	-940.81165	
3515	35.140	-750.95691	19.40173	-647.84094	819.71124	18.12739	-625.15991	-681.43188	4.20523	488.48804	732.12683	1.23105	591.66156	44.40823	1321.78784	-942.08746	
3516	35.150	-750.96063	19.12310	-647.95868	819.69299	17.87243	-625.26331	-681.60651	4.47972	488.66403	732.16840	1.50790	591.70886	44.31319	1321.21179	-943.09430	
3517	35.160	-750.87915	18.72710	-648.27313	819.64868	17.61011	-625.47913	-681.57648	4.75058	488.40430	732.81378	2.01360	591.81464	44.16385	1320.70972	-943.56866	
3518	35.170	-750.97278	18.48957	-648.26147	819.63446	17.24399	-625.50653	-681.56433	4.88485	488.30331	732.58105	1.50983	591.09570	44.26419	1320.05530	-944.32526	
3519	35.180	-750.90350	18.19606	-648.32147	819.63190	16.79286	-625.52185	-681.92279	5.75764	488.01416	732.53888	1.76269	590.98792	44.15062	1319.78491	-944.87274	
3520	35.190	-750.62854	17.88197	-648.43372	819.70081	16.37427	-625.53516	-681.90594	6.09248	488.00363	732.59784	2.16139	590.98914	44.20972	1319.08752	-945.55054	
3521	35.200	-750.50116	17.40290	-648.56549	819.89557	16.05608	-625.66571	-681.91400	6.52734	487.91022	732.50409	2.47746	590.84406	44.23342	1318.48010	-946.40021	
3522	35.210	-750.49371	16.92114	-648.76691	820.03192	15.80048	-625.72614	-681.88489	6.95200	487.71432	732.60229	2.70632	590.70056	44.40785	1317.92847	-946.83362	
3523	35.220	-750.66980	16.48762	-648.92950	819.99152	15.34128	-626.00946	-681.77649	7.16586	487.64514	732.92194	3.22765	590.58197	44.36487	1317.46240	-947.37915	
3524	35.230	-750.61957	16.13698	-648.86316	819.88464	14.78630	-626.09442	-681.72473	7.31569	487.61801	733.00171	3.59617	590.44897	44.39305	1316.78455	-948.09698	
3525	35.240	-750.42236	15.70864	-648.70612	819.95020	14.37286	-626.17303	-681.68744	7.48571	487.62228	733.01331	3.81682	590.42517	44.47841	1316.13074	-948.90002	
3526	35.250	-750.23621	15.38724	-648.77502	820.06543	13.99152	-626.20642	-681.63452	7.82199	487.31296	733.03638	4.14867	590.35510	44.78439	1315.26245	-950.27081	
3527	35.260	-750.23260	15.10224	-648.95313	820.12415	13.80953	-626.33850	-681.31873	7.71465	487.27417	733.09033	4.39523	590.45020	44.93999	1315.18457	-951.26758	
3528	35.270	-750.11334	14.56151	-648.93652	820.14978	13.42244	-626.48444	-681.17273	7.81766	487.29831	733.05829	4.70042	590.26440	45.00636	1314.80664	-952.57263	
3529	35.280	-750.37305	14.02395	-649.31824	820.17535	12.97884	-626.60657	-681.15295	8.15610	487.21149	732.95111	5.18066	590.00934	44.79916	1313.98425	-953.57635	
3530	35.290	-750.40851	13.72619	-649.34088	820.18915	12.43022	-626.67645	-681.17017	8.54166	487.17307	732.97626	5.48560	589.87463	45.35279	1313.35291	-954.82520	
3531	35.300	-750.47968	13.47496	-649.42877	820.26105	11.98070	-626.71039	-681.14862	8.88477	487.03665	733.02606	5.68079	589.84644	45.36342	1312.84900	-955.65387	
3532	35.310	-750.45526	13.03207	-649.54572	820.37408	11.61370	-626.84552	-681.04669	9.22265	486.98120	733.09753	5.87986	589.84186	45.20932	1312.19275	-956.76776	
3533	35.320	-750.25861	12.89251	-649.68304	820.42670	11.22530	-627.08850	-680.87231	9.39397	486.93759	733.20569	6.29232	589.78156	45.23030	1311.52075	-957.48376	
3534	35.330	-750.13226	12.16854	-649.80951	820.42212	10.74272	-627.24347	-680.81049	9.57162	486.87155	733.48541	6.91992	589.62396	45.58587	1310.63770	-958.39148	
3535	35.340	-749.98096	11.19409	-649.72473	820.60663	10.27622	-627.24683	-680.77258	9.85788	486.76657	733.44733	7.35810	589.44891	45.53305	1310.29907	-959.25189	
3536	35.350	-750.24042	10.94923	-649.77808	820.59741	9.90283	-627.31598	-680.71979	10.23272	486.64972	733.42480	7.55632	589.29950	45.41842	1309.50562	-960.13495	
3537	35.360	-750.34564	10.73192	-649.89551	820.62610	9.49313	-627.37958	-680.68225	10.57223	486.46768	733.40985	7.78318	589.22412	45.44488	1308.61609	-961.12372	
3538	35.370	-750.03766	10.40598	-650.26068	820.70428	8.62117	-627.62909	-680.76984	10.93128	486.29446	733.25378	8.18779	589.14948	45.65948	1308.19312	-961.92194	
3539	35.380	-750.06708	9.87137	-650.54834	820.79962	8.06051	-627.70941	-680.82391	11.36310	486.15906	733.36554	8.60667	589.07861	45.82259	1307.49390	-963.06329	
3540	35.390	-750.07678	9.51614	-650.66180	820.95117	7.70539	-628.15472	-680.70673	11.59126	486.13669	733.62653	9.05934	588.95227	45.91756	1306.85510	-964.01978	
3541	35.400	-749.98877	9.25213	-650.71179	820.88721	7.59151	-627.75488	-680.58868	11.77197	486.11395	733.78479	9.34248	588.86841	46.11671	1306.21643	-965.03528	
3542	35.410	-749.80237	8.81363	-650.71759	820.98730	7.18568	-627.84631	-680.35797	12.12867	485.90228	733.75476	9.75574	588.74646	45.97145	1305.59583	-966.12952	
3543	35.420	-749.80518	8.20471	-650.74622	821.03870	6.58448	-628.12738	-680.12531	12.39190	485.87811	733.81110	10.07059	588.60553	46.04197	1305.02307	-967.38617	
3544	35.430	-749.54242	7.64528	-650.86499	821.14404	6.22304	-628.27100	-680.18964	12.82082	485.91953	733.70245	11.17113	589.03284	46.20825	1304.16931	-968.37750	
3545	35.440	-749.50397	7.22817	-651.08771	821.34760	5.66250	-628.76825	-680.46002	13.10639	485.80591	733.77893	11.61715	589.01477	46.27325	1303.50928	-969.24731	
3546	35.450	-749.37842	6.76255	-651.28467	821.15753	5.25447	-628.34509	-680.44714	13.32332	485.76471	733.88611	12.32729	589.33087	46.38922	1302.86292	-970.18604	
3547	35.460	-749.18536	6.02019	-651.81201	821.06995	4.75751	-628.52179	-680.37939	13.79898	485.48651	733.18549	13.06441	589.52881	46.37212	1302.18237	-971.20117	
3548	35.470	-749.42291	5.69745	-651.85101	821.16083	4.31461	-628.64471	-680.28632	14.23271	485.28906	733.91418	12.31384	588.46442	46.44796	1301.56848	-972.17474	
3549	35.480	-748.82031	5.53256	-651.18091	821.36047	3.91957	-628.82031	-680.12714	14.46479	485.15128	733.93890	12.63318	588.19043	46.35012	1301.00806	-973.00958	
3550	35.490	-749.18488	5.10376	-651.69684	821.69727	3.36711	-629.11053	-680.11194	14.67605	485.10440	733.94049	12.75531	587.96246	46.37367	1300.27063	-973.97791	
3551	35.500	-749.20917	4.80144	-651.93256	821.42017	3.10924	-628.83759	-680.05762	14.78808	485.00314	734.01013	13.08440	587.87933	46.39534	1299.51782	-974.77417	
3552	35.510	-749.11371	4.31160	-652.07709	821.37347	2.69561	-629.04443	-679.95941	14.98142	484.92932	733.99152	13.18802	587.70972	46.73351	1298.87659	-975.72052	
3553	35.520	-748.93164	3.61750	-652.09674	821.54309	2.31080	-629.12939	-679.88629	15.27934	484.74841	734.13519	13.52195	587.57111	46.98465	1298.47961	-976.51337	
3554	35.530	-748.90167	3.25809	-652.20197	821.71057	1.88949	-629.18219	-679.91357	15.65179	484.56516	734.29889	14.02421	587.52594	46.74847	1297.88330	-977.50262	
3555	35.540	-748.98273	3.00021	-652.21484	821.70349	1.41369	-629.32605	-679.83350	16.10681	484.47919	734.30328	14.42982	587.58685	46.54451	1296.87280	-978.31781	
3556	35.550	-748.89307	2.57614	-652.23193	821.94049	0.98522	-629.77002	-679.73755	16.39828	484.41214	734.30823	14.76626	587.43738	47.09129	1296.70837	-979.26685	
3557	35.560	-748.82074	2.03552	-652.31885	821.88818	0.75733	-629.23413	-679.60333	16.65803	484.29037	734.40253	15.16922	587.33698	47.39409	1296.06079	-980.05225	
3558	35.570	-748.88898	1.73806	-652.47675	821.82550	0.23210	-629.48297	-679.54773	16.88283	484.23419	734.37982	15.31216	587.22809	47.30626	1295.23035	-981.03473	
3559	35.580	-748.96191	1.48574	-652.56146	821.97437	-0.15343	-629.58051	-679.45392	17.09518	484.12576	734.37415	15.58063	587.12164	47.10540	1294.85107	-981.92029	
3560	35.590	-748.83746	1.24949	-652.61096	821.95306	-0.47538	-629.61804	-679.42108	17.30509	484.03473	734.39575	15.79983	587.04675	47.25404	1294.53137	-982.55536	
3561	35.600	-748.72571	1.06297	-652.57703	821.95673	-0.73063	-629.73224	-679.40753	17.47386	483.95224	734.51654	16.03694	587.01941	47.27945	1293.88831	-983.20117	
3562	35.610	-748.65863	0.82124	-652.50250	822.14551	-1.24280	-630.10840	-679.34741	17.65668	483.90900	734.65948	16.26307	587.09454	47.41232	1293.31665	-983.91620	
3563	35.620	-748.48132	0.43751	-652.50800	821.93286	-1.44902	-629.83734	-679.30951	17.83754	483.83435	734.69019	16.62536	587.01593	47.53275	1292.87390	-984.71771	
3564	35.630	-748.38574	-0.11648	-652.53613	822.01099	-1.73863	-629.95313	-679.23663	18.05717	483.76010	734.75897	16.90148	586.89624	47.32905	1292.42932	-985.46765	
3565	35.640	-748.38275	-0.54925	-652.58740	822.09930	-1.97393	-630.00568	-679.17908	18.29468	483.64536	734.83130	17.29044	586.73944	47.31177	1292.01453	-986.04730	
3566	35.650	-748.35382	-0.86848	-652.66119	822.21710	-2.24638	-630.06897	-679.17108	18.54212	483.59097	734.91144	17.44238	586.56189	47.45288	1291.62134	-986.51093	
3567	35.660	-748.37817	-1.19123	-652.77063	822.35828	-2.44834	-630.11578	-679.13556	18.64553	483.53452	734.90594	17.58596	586.51135	47.67694	1291.17688	-986.91656	
3568	35.670	-748.62250	-1.32572	-652.58752	822.39331	-2.67462	-630.04004	-679.10333	18.72645	483.77356	734.94714	17.85435	586.52161	47.64430	1290.70679	-987.55078	
3569	35.680	-748.62744	-1.64643	-652.45160	822.48645	-2.96026	-630.05353	-679.25671	19.31967	483.39709	735.01117	18.17826	586.52649	47.74855	1290.30176	-988.26941	
3570	35.690	-748.55853	-1.94507	-652.52557	822.80682	-3.35894	-630.42456	-679.23822	19.73115	483.32996	734.93127	18.31350	586.44727	47.62396	1289.96936	-988.78406	
3571	35.700	-748.49805	-2.04633	-652.54883	822.57092	-3.62922	-630.56335	-679.06183	19.65666	483.24982	734.97937	18.41247	586.40485	47.57567	1289.79370	-989.29034	
3572	35.710	-748.21118	-2.28058	-652.74890	822.39069	-3.68397	-630.33942	-679.03674	19.77106	483.25739	735.15002	18.51504	586.29675	47.38561	1289.53064	-989.41498	
3573	35.720	-747.94727	-2.32628	-652.94354	822.44806	-3.81344	-630.38269	-679.03992	19.96476	483.24863	735.17743	18.59457	586.21576	47.82714	1289.34082	-989.98938	
